# xmcd
#
# Track frame offsets: 
#        150
#        12380
#        20898
#        44708
#        50188
#        54855
#        82545
#        87443
#        126410
#        129470
#        158043
#        161215
#        173260
#        197963
#        216695
#        220970
#        241135
#        253630
#        255305
#        276125
#        278598
#        296718
#        303683
#        323910
#
# Disc length: 4421 seconds
#
# Revision: 2
# Processed by: cddbd v1.5.2PL0 Copyright (c) Steve Scherf et al.
# Submitted via: ExactAudioCopy v0.95b4
#
DISCID=69114318
DTITLE=Karl Richter, Muenchener Bach-Chor und Orchester - Bach Cantata
DTITLE=s Vol. 10
DYEAR=1975
DGENRE=Baroque
TTITLE0=Cantata (for Sunday after Ascension) BWV 44 - 1. Arie Duett (T
TTITLE0=enor, Bass) Sie werden euch in den Bann tun
TTITLE1=Cantata BWV 44 - 2. (Chor) Es koemmt aber die Zeit
TTITLE2=Cantata BWV 44 - 3. Arie (Alt) Christen muessen auf der Erden
TTITLE3=Cantata BWV 44 - 4. Choral(Tenor) Ach Gott, wie manches Herzel
TTITLE3=eid
TTITLE4=Cantata BWV 44 - 5. Rezitativ (Bass) Es sucht der Antichrist
TTITLE5=Cantata BWV 44 - 6. Arie (Sopran) Es ist und bleibt der Christ
TTITLE5=en Trost
TTITLE6=Cantata BWV 44 - 7. Choral. So sei nun, Seele, deine
TTITLE7=Cantata (for Whit Sunday) BWV 34 - 1. (Chor) O ewiges Feuer, o
TTITLE7=Ursprung der Liebe
TTITLE8=Cantata BWV 34 - 2. Rezitativ (Tenor) Herr, unsre Herzen halte
TTITLE8=n dir
TTITLE9=Cantata BWV 34 - 3. Arie (Alt) Wohl euch, ihr auserwaehlten Se
TTITLE9=elen
TTITLE10=Cantata BWV 34 - 4. Rezitativ (Bass) Erwaehlt sich Gott die h
TTITLE10=eilgen Huetten
TTITLE11=Cantata BWV 34 - 5. (Chor) Friede ueber Israel
TTITLE12=Cantata (for Whit Monday) BWV 68 - 1. Choral (Chor) Also hat 
TTITLE12=Gott die Welt geliebt
TTITLE13=Cantata BWV 68 - 2. Arie (Sopran) Mein glaeubiges Herze
TTITLE14=Cantata BWV 68 - 3. Rezitativ (Bass) Ich bin mit Petro nicht 
TTITLE14=vermessen
TTITLE15=Cantata BWV 68 - 4. Arie (Bass) Du bist geboren mir zugute
TTITLE16=Cantata BWV 68 - 5. (Chor) Wer an ihn glaeubet
TTITLE17=Cantata (for Whit Tuesday) BWV 175 - 1. Rezitativ (Tenor) Er 
TTITLE17=rufet seinen Schafen mit Namen
TTITLE18=Cantata BWV 175 - 2. Arie (Alt) Komm, leite mich
TTITLE19=Cantata BWV 175 - 3. Rezitativ (Tenor) Wo find ich dich?
TTITLE20=Cantata BWV 175 - 4. Arie (Tenor) Es duenket mich, ich seh di
TTITLE20=ch kommen
TTITLE21=Cantata BWV 175 - 5. Rezitativ (Alt, Bass) Sie vernahmen aber
TTITLE21=nicht
TTITLE22=Cantata BWV 175 - 6. Arie (Bass) Oeffnet euch, ihr beiden Ohr
TTITLE22=en
TTITLE23=Cantata BWV 175 - 7. Choral. Nun, werter Geist, ich folg dir
EXTD=YEAR: 1955
EXTT0=
EXTT1=
EXTT2=
EXTT3=
EXTT4=
EXTT5=
EXTT6=
EXTT7=
EXTT8=
EXTT9=
EXTT10=
EXTT11=
EXTT12=
EXTT13=
EXTT14=
EXTT15=
EXTT16=
EXTT17=
EXTT18=
EXTT19=
EXTT20=
EXTT21=
EXTT22=
EXTT23=
PLAYORDER=
